<svg id="Layer_1" data-name="Layer 1" xmlns="http://www.w3.org/2000/svg" viewBox="0 0 320.79 334.3"><defs><style>.cls-1,.cls-2,.cls-3{fill:#231f20;}.cls-2{font-size:277.28px;font-family:Algerian;}.cls-3{font-size:100px;font-family:RageItalic, Rage Italic;}</style></defs><path class="cls-1" d="M246.38,380.43a6.76,6.76,0,0,1,.58-.72c.23-.23.46-.45.67-.7s.43-.66.64-1c.11-.18.23-.34.35-.5q-16.06.64-34.58.65H122.91l3.74,3H214q17,0,32.22-.57A2.25,2.25,0,0,1,246.38,380.43Z" transform="translate(-111.21 -169)"/><path class="cls-1" d="M396.53,303.94a1.55,1.55,0,0,1,.59.11c.11-1.61.18-3.24.18-4.91q0-42.49-52.79-57.54c1.66.91,2.65,1.43,3,1.58l10,5q33.62,16.85,33.61,51.55c0,.28,0,.56,0,.85.55.38,1.08.78,1.65,1.14a10,10,0,0,0,.9.52l.25.12s.34.13.13.07.11,0,.15.06l.54.22a6.65,6.65,0,0,1,1.79,1.26Z" transform="translate(-111.21 -169)"/><path class="cls-1" d="M380.6,341.84l-.22-.16a.61.61,0,0,1-.13-.22v-.1l-.17-.14a.34.34,0,0,1-.09-.08l0,0a4.07,4.07,0,0,0-.42-.41l-.39-.38c-.27-.25-.58-.46-.83-.72,0,0,0,0,0-.05h0a.33.33,0,0,1-.19-.06.65.65,0,0,1-.18-.15.94.94,0,0,1-.09-.12h0l0,0,0,0-.08-.05-.07-.05a.7.7,0,0,1-.16-.13h0l-.07-.06-.23-.15-.15-.09c-.07-.06-.15-.11-.22-.18q-18.42,21-60.61,31.18c-1.7.42-3.48.81-5.29,1.19l.48.19.16.07,0,0A5.44,5.44,0,0,1,313,372c.17.13.33.28.49.42l.26.21,0,.05h0l0,0h0a1.13,1.13,0,0,1,.51.26s.05.07.08.11l.1.05,0,0h0c-.11,0-.11-.09,0,0a1.81,1.81,0,0,0,.31.09,1,1,0,0,1,.46.26A167.85,167.85,0,0,0,345,364.94q22.88-9.26,35.72-23h0Z" transform="translate(-111.21 -169)"/><path class="cls-1" d="M323.35,239.45c-3.53-1.27-7.38-2.44-11.5-3.52a2.45,2.45,0,0,1-1.11,2.63,1.76,1.76,0,0,1-1.78,1.36,1.94,1.94,0,0,1-.66-.12l-.75.58a6.77,6.77,0,0,0-1.55,2c-.55.92-1.09,1.85-1.63,2.77a16.11,16.11,0,0,1-1.77,2.55,5.26,5.26,0,0,0-1.15,1.63c-.55,1.63,0,3.67,0,5.36a1.93,1.93,0,0,1-.26,1c0,.05,0,.11-.07.16a47.25,47.25,0,0,1,16.32,23.91,29.87,29.87,0,0,1,5.54,1.72A7.85,7.85,0,0,1,324,282a3,3,0,0,0,2.09.15,3.63,3.63,0,0,1,2.56,1c.22.06.43.14.64.22a18.31,18.31,0,0,1,4.07,1.39h0c.58.15,1.15.31,1.7.51,1.1.22,2.22.32,3.32.6,1.72.45,3.47,1,5.17,1.5a20.82,20.82,0,0,0,4.51.67,30.22,30.22,0,0,1,5.2.68c1.77.48,3.46.95,5.27,1.26,3.81.65,7.62,1.31,11.36,2.29a2,2,0,0,1,.47.2,11.34,11.34,0,0,1,1.54.17c.84.12,1.62.28,2.4.34a1.64,1.64,0,0,1,.32.05Q371.85,256.9,323.35,239.45Z" transform="translate(-111.21 -169)"/><path class="cls-1" d="M364.53,331.55l-.2-.1a2.43,2.43,0,0,1-.25-.2l-.17-.13a1.24,1.24,0,0,1-.4-.16l-.46-.22c-.19-.06-.37-.12-.56-.16l-.49,0-.11,0a1.5,1.5,0,0,1-.47,0,15.8,15.8,0,0,0-1.9-.66,1.23,1.23,0,0,1-.46,0,5,5,0,0,1-.64-.25l-.24-.12a4,4,0,0,1-.43-.28c-.18-.14-.37-.28-.56-.4a20.64,20.64,0,0,1-2.72-.35,1.33,1.33,0,0,1-.28-.1,17,17,0,0,1-3-1c-.55-.08-1.09-.17-1.64-.3s-1-.21-1.47-.28a1.63,1.63,0,0,1-.46-.18,13.14,13.14,0,0,1-3.39-.72c-.58-.2-1.16-.42-1.76-.59-.28-.09-.57-.16-.87-.23a3.2,3.2,0,0,1-.41-.07l-.15,0a1.86,1.86,0,0,1-1.21-.54,1.32,1.32,0,0,1-.48.13,1.27,1.27,0,0,1-.67,0c-.39-.1-.77-.19-1.16-.26a1.87,1.87,0,0,1-.88,0,12.17,12.17,0,0,1-1.92-.76,5.77,5.77,0,0,0-.74-.22.78.78,0,0,1-.22,0,1.37,1.37,0,0,1-.75,0l-.73-.11c-.78-.1-1.56-.19-2.35-.27a1.82,1.82,0,0,1-.82-.21,1.31,1.31,0,0,1-.69-.05,10.09,10.09,0,0,0-2-.56l-.52-.08h0l-1.05-.12a16.39,16.39,0,0,1-4.29-1h0c-.87-.19-1.74-.42-2.62-.56a11.11,11.11,0,0,0-1.16-.08,1.8,1.8,0,0,1-.57-.1q-6.42,17.68-23.92,28.44a1.74,1.74,0,0,1,.63,1.63l.22.23,0,0a1.18,1.18,0,0,1,.18.21,1.21,1.21,0,0,1,.3.57c.07.31.14.62.2.93a1.73,1.73,0,0,1,.62,1.49,1.77,1.77,0,0,1,.32.86l.17.23a1.2,1.2,0,0,1,.24.26,1.25,1.25,0,0,1,.26.48c.1.23.21.45.32.67a1.67,1.67,0,0,1,.62.94,6,6,0,0,1,.72.61,5.79,5.79,0,0,1,.43.55,2,2,0,0,1,.16.24,3.75,3.75,0,0,1,.29.79,5.09,5.09,0,0,1,1.48,1.38c.21.3.44.58.64.88l.14.22a5.74,5.74,0,0,1,1.23,1.48,8.9,8.9,0,0,1,1,.76,4,4,0,0,1,.66.82,1.24,1.24,0,0,1,.38.29,173.18,173.18,0,0,0,26.44-8.18q23.54-9.57,34.74-25.34Z" transform="translate(-111.21 -169)"/><path class="cls-1" d="M216.78,226.91h-98.1l26.64,13V360.08l-34.11,11.86H217q20,0,36.13-.77a1.41,1.41,0,0,1,.48-.55,1.43,1.43,0,0,1,.6-.69,1.34,1.34,0,0,1,.32-.39l.07-.1a1.6,1.6,0,0,1,.75-1.23l.13-.22.21-.31a1.65,1.65,0,0,1,.61-1.05,1.63,1.63,0,0,1,.58-1,1.55,1.55,0,0,1,.78-1,1.51,1.51,0,0,1,1.16-1.17l0,0a1.62,1.62,0,0,1,.53-.93v0a1.91,1.91,0,0,1,.06-.33s0,0,0,0a1.53,1.53,0,0,1,.4-.7,1.83,1.83,0,0,1,.1-.87c-1.2.22-2.4.43-3.61.61q-14.44,2.09-42.33,2.09V246.46Q224.5,246,231,246a291.39,291.39,0,0,1,30,1.52,12.77,12.77,0,0,1,1-3A231.05,231.05,0,0,0,231.47,243q-10.71,0-23.65.9V363.24h-13.7V236.4h11.7q36.85,0,59.41,4.39a23.89,23.89,0,0,1,2.31-4.07c.47-.68,1.28-1.43,1.89-2.19.37-.77.7-1.56,1.15-2.35a3.55,3.55,0,0,1,1.7-1.6l.09-.07a3.78,3.78,0,0,1,.49-1.17Q248.43,226.91,216.78,226.91Z" transform="translate(-111.21 -169)"/><text class="cls-2" transform="translate(135.44 231.11) scale(1.21 1)">s</text><text class="cls-3" transform="translate(10.7 293.29)">Billing </text></svg>